<svg width="111" height="16" viewBox="0 0 111 16" fill="none" xmlns="http://www.w3.org/2000/svg">
<g clip-path="url(#clip0)">
<path d="M14.8992 11.4633L11.1616 2L8 7.53201L4.8512 2L1.1008 11.4633H0V12.8976H5.6576V11.4633H4.8128L5.632 9.1071L8 13L10.368 9.1071L11.1872 11.4633H10.3424V12.8976H16V11.4633H14.8992Z" fill="#FF0013"/>
</g>
<path d="M34.8115 8.34473C34.8115 9.31999 34.6475 10.1722 34.3193 10.9014C33.9912 11.626 33.5264 12.1797 32.9248 12.5625C32.3232 12.9453 31.6214 13.1367 30.8193 13.1367C30.0355 13.1367 29.3405 12.9453 28.7344 12.5625C28.1283 12.1751 27.6566 11.626 27.3193 10.915C26.9867 10.1995 26.8158 9.3724 26.8066 8.43359V7.71582C26.8066 6.75879 26.973 5.91341 27.3057 5.17969C27.6383 4.44596 28.1077 3.88542 28.7139 3.49805C29.3245 3.10612 30.0218 2.91016 30.8057 2.91016C31.6032 2.91016 32.305 3.10384 32.9111 3.49121C33.5218 3.87402 33.9912 4.43229 34.3193 5.16602C34.6475 5.89518 34.8115 6.74512 34.8115 7.71582V8.34473ZM33.5059 7.70215C33.5059 6.52181 33.2689 5.61719 32.7949 4.98828C32.321 4.35482 31.6579 4.03809 30.8057 4.03809C29.9762 4.03809 29.3223 4.35482 28.8438 4.98828C28.3698 5.61719 28.126 6.49219 28.1123 7.61328V8.34473C28.1123 9.48861 28.3516 10.3887 28.8301 11.0449C29.3132 11.6966 29.9762 12.0225 30.8193 12.0225C31.667 12.0225 32.3232 11.7148 32.7881 11.0996C33.2529 10.4798 33.4922 9.59342 33.5059 8.44043V7.70215ZM38.8857 9.84863H37.9629V13H36.6914V5.60352H37.9629V8.73438H38.79L41.2783 5.60352H42.8096L39.8838 9.1582L43.0557 13H41.4492L38.8857 9.84863ZM49.6387 6.62891H47.1572V13H45.8926V6.62891H43.459V5.60352H49.6387V6.62891ZM56.5225 5.60352V13H55.251V10.1221H53.3438L51.6006 13H50.2334L52.0928 9.93066C51.6188 9.75749 51.2542 9.49089 50.999 9.13086C50.7484 8.76628 50.623 8.34245 50.623 7.85938C50.623 7.1849 50.876 6.64258 51.3818 6.23242C51.8877 5.81771 52.5645 5.60807 53.4121 5.60352H56.5225ZM51.8945 7.87305C51.8945 8.23307 52.0176 8.52474 52.2637 8.74805C52.5098 8.9668 52.8356 9.07845 53.2412 9.08301H55.251V6.62891H53.4326C52.9632 6.62891 52.5895 6.74512 52.3115 6.97754C52.0335 7.2054 51.8945 7.50391 51.8945 7.87305ZM61.7998 6.02734C62.7295 6.02734 63.4723 6.33952 64.0283 6.96387C64.5889 7.58366 64.8691 8.40169 64.8691 9.41797V9.53418C64.8691 10.2314 64.7347 10.8558 64.4658 11.4072C64.1969 11.9541 63.8096 12.3802 63.3037 12.6855C62.8024 12.9863 62.2236 13.1367 61.5674 13.1367C60.5739 13.1367 59.7741 12.8063 59.168 12.1455C58.5618 11.4801 58.2588 10.5892 58.2588 9.47266V8.85742C58.2588 7.30339 58.5459 6.06836 59.1201 5.15234C59.6989 4.23633 60.5511 3.67806 61.6768 3.47754C62.3148 3.36361 62.7454 3.22461 62.9688 3.06055C63.1921 2.89648 63.3037 2.6709 63.3037 2.38379H64.3428C64.3428 2.95345 64.2129 3.39779 63.9531 3.7168C63.6979 4.03581 63.2878 4.26139 62.7227 4.39355L61.7793 4.60547C61.0273 4.7832 60.4622 5.08398 60.084 5.50781C59.7103 5.92708 59.4665 6.48763 59.3525 7.18945C60.0225 6.41471 60.8382 6.02734 61.7998 6.02734ZM61.5537 7.06641C60.9339 7.06641 60.4417 7.27604 60.0771 7.69531C59.7126 8.11003 59.5303 8.68652 59.5303 9.4248V9.53418C59.5303 10.3271 59.7126 10.9561 60.0771 11.4209C60.4463 11.8812 60.943 12.1113 61.5674 12.1113C62.1963 12.1113 62.693 11.8789 63.0576 11.4141C63.4222 10.9492 63.6045 10.2702 63.6045 9.37695C63.6045 8.67969 63.4199 8.12142 63.0508 7.70215C62.6862 7.27832 62.1872 7.06641 61.5537 7.06641ZM72.416 9.38379C72.416 10.5094 72.1585 11.4163 71.6436 12.1045C71.1286 12.7926 70.4313 13.1367 69.5518 13.1367C68.654 13.1367 67.9476 12.8519 67.4326 12.2822V15.8438H66.168V5.60352H67.3232L67.3848 6.42383C67.8997 5.78581 68.6152 5.4668 69.5312 5.4668C70.4199 5.4668 71.1217 5.80176 71.6367 6.47168C72.1562 7.1416 72.416 8.07357 72.416 9.26758V9.38379ZM71.1514 9.24023C71.1514 8.40625 70.9736 7.74772 70.6182 7.26465C70.2627 6.78158 69.7751 6.54004 69.1553 6.54004C68.3896 6.54004 67.8154 6.87956 67.4326 7.55859V11.0928C67.8109 11.7673 68.3896 12.1045 69.1689 12.1045C69.7751 12.1045 70.2559 11.8652 70.6113 11.3867C70.9714 10.9036 71.1514 10.1882 71.1514 9.24023ZM75.4102 8.15332H77.3311C78.1696 8.16243 78.8327 8.38118 79.3203 8.80957C79.8079 9.23796 80.0518 9.81901 80.0518 10.5527C80.0518 11.291 79.8011 11.8835 79.2998 12.3301C78.7985 12.7767 78.124 13 77.2764 13H74.1455V5.60352H75.4102V8.15332ZM75.4102 9.18555V11.9678H77.29C77.764 11.9678 78.1309 11.847 78.3906 11.6055C78.6504 11.3594 78.7803 11.0244 78.7803 10.6006C78.7803 10.1904 78.6527 9.85547 78.3975 9.5957C78.1468 9.33138 77.7936 9.19466 77.3379 9.18555H75.4102ZM84.5977 12.1045C85.0488 12.1045 85.443 11.9678 85.7803 11.6943C86.1175 11.4209 86.3044 11.0791 86.3408 10.6689H87.5371C87.5143 11.0928 87.3685 11.4961 87.0996 11.8789C86.8307 12.2617 86.4707 12.5671 86.0195 12.7949C85.5729 13.0228 85.099 13.1367 84.5977 13.1367C83.5905 13.1367 82.7884 12.8018 82.1914 12.1318C81.599 11.4574 81.3027 10.5368 81.3027 9.37012V9.1582C81.3027 8.43815 81.4349 7.79785 81.6992 7.2373C81.9635 6.67676 82.3418 6.24154 82.834 5.93164C83.3307 5.62174 83.9163 5.4668 84.5908 5.4668C85.4202 5.4668 86.1084 5.71517 86.6553 6.21191C87.2067 6.70866 87.5007 7.35352 87.5371 8.14648H86.3408C86.3044 7.66797 86.1221 7.27604 85.7939 6.9707C85.4704 6.66081 85.0693 6.50586 84.5908 6.50586C83.9482 6.50586 83.4492 6.73828 83.0938 7.20312C82.7428 7.66341 82.5674 8.33105 82.5674 9.20605V9.44531C82.5674 10.2975 82.7428 10.9538 83.0938 11.4141C83.4447 11.8743 83.946 12.1045 84.5977 12.1045ZM91.2627 9.84863H90.3398V13H89.0684V5.60352H90.3398V8.73438H91.167L93.6553 5.60352H95.1865L92.2607 9.1582L95.4326 13H93.8262L91.2627 9.84863ZM101.086 13C101.013 12.8542 100.954 12.5944 100.908 12.2207C100.32 12.8314 99.6185 13.1367 98.8027 13.1367C98.0736 13.1367 97.4743 12.9316 97.0049 12.5215C96.54 12.1068 96.3076 11.5827 96.3076 10.9492C96.3076 10.179 96.5993 9.58203 97.1826 9.1582C97.7705 8.72982 98.5954 8.51562 99.6572 8.51562H100.888V7.93457C100.888 7.49251 100.756 7.1416 100.491 6.88184C100.227 6.61751 99.8372 6.48535 99.3223 6.48535C98.8711 6.48535 98.4928 6.59928 98.1875 6.82715C97.8822 7.05501 97.7295 7.33073 97.7295 7.6543H96.458C96.458 7.28516 96.5879 6.92969 96.8477 6.58789C97.112 6.24154 97.4674 5.9681 97.9141 5.76758C98.3652 5.56706 98.8597 5.4668 99.3975 5.4668C100.25 5.4668 100.917 5.68099 101.4 6.10938C101.883 6.5332 102.134 7.11882 102.152 7.86621V11.2705C102.152 11.9495 102.239 12.4896 102.412 12.8906V13H101.086ZM98.9873 12.0361C99.3838 12.0361 99.7598 11.9336 100.115 11.7285C100.471 11.5234 100.728 11.2568 100.888 10.9287V9.41113H99.8965C98.347 9.41113 97.5723 9.86458 97.5723 10.7715C97.5723 11.168 97.7044 11.4779 97.9688 11.7012C98.2331 11.9245 98.5726 12.0361 98.9873 12.0361ZM109.788 5.60352V13H108.517V10.1221H106.609L104.866 13H103.499L105.358 9.93066C104.884 9.75749 104.52 9.49089 104.265 9.13086C104.014 8.76628 103.889 8.34245 103.889 7.85938C103.889 7.1849 104.142 6.64258 104.647 6.23242C105.153 5.81771 105.83 5.60807 106.678 5.60352H109.788ZM105.16 7.87305C105.16 8.23307 105.283 8.52474 105.529 8.74805C105.775 8.9668 106.101 9.07845 106.507 9.08301H108.517V6.62891H106.698C106.229 6.62891 105.855 6.74512 105.577 6.97754C105.299 7.2054 105.16 7.50391 105.16 7.87305Z" fill="black"/>
<defs>
<clipPath id="clip0">
<rect width="16" height="11" fill="white" transform="translate(0 2)"/>
</clipPath>
</defs>
</svg>
